<?xml version="1.0" encoding="UTF-8"?><svg id="Layer_1" xmlns="http://www.w3.org/2000/svg" width="24" height="24" viewBox="0 0 24 24"><polygon points="23.25 20.32 .75 20.32 .75 5.65 .75 3.62 23.25 3.62 23.25 20.32" fill="#fff" stroke="#231f20" stroke-miterlimit="10" stroke-width=".5"/><line x1="23.17" y1="5.62" x2=".75" y2="5.62" fill="#fff" stroke="#231f20" stroke-miterlimit="10" stroke-width=".5"/><circle cx="12" cy="12.91" r="6.65" fill="#fff"/><path d="M14.14,18.07l-.93-2.57h-2.41l-.93,2.57h-2.06c1.14.93,2.6,1.49,4.2,1.49s3.05-.56,4.2-1.49h-2.06Z" fill="#231f20"/><path d="M10.17,7.08h3.67l3.53,9.77c.81-1.1,1.29-2.47,1.29-3.94,0-3.68-2.98-6.65-6.65-6.65s-6.65,2.98-6.65,6.65c0,1.48.48,2.84,1.29,3.94l3.53-9.77Z" fill="#231f20"/><ellipse cx="12" cy="12.91" rx="2.26" ry="1.76" fill="#231f20"/></svg>